<svg width="48" height="55" viewBox="0 0 48 55" fill="none" xmlns="http://www.w3.org/2000/svg">
<path d="M27.9019 45.8956C26.4146 43.7287 26.7278 40.9043 28.5991 39.586C30.4704 38.2709 33.1979 38.9572 34.6852 41.1256C36.174 43.2893 35.8608 46.1153 33.988 47.432C32.1167 48.7487 29.3892 48.0609 27.9019 45.8956Z" fill="#FFDC5D"/>
<path d="M29.0289 48.5669C29.0289 48.5669 30.2093 49.7483 28.4434 51.2242C26.9876 52.4406 25.4028 51.0204 23.8651 51.1955C22.7052 51.3277 21.7294 51.9916 21.3721 52.9246C21.3721 52.9246 21.5169 51.1398 22.2598 49.976C23.2245 48.465 25.1352 47.6562 26.2259 47.5273C27.9272 47.3282 29.0289 48.5669 29.0289 48.5669Z" fill="#FFAC33"/>
<path d="M29.0321 37.1355L31.9768 42.692C32.3923 43.4657 32.1058 44.4863 31.3472 44.8955C30.5855 45.3158 29.6317 45.0499 29.2163 44.2761L26.462 39.1495L22.8721 41.6746L22.1859 38.277C21.9624 37.9267 30.6437 33.9624 31.2276 33.3032C31.2292 33.3048 32.002 35.416 29.0321 37.1355Z" fill="#FFDC5D"/>
<path d="M37.8545 32.1792L31.0224 32.2318C30.2103 32.2381 29.5524 32.9132 29.5572 33.7331C29.5634 34.5531 30.2339 35.2218 31.0444 35.2138L37.8781 35.1645C38.6902 35.1581 39.3481 34.4814 39.3433 33.6615C39.3355 32.8415 38.6666 32.1744 37.8545 32.1792Z" fill="#FFDC5D"/>
<path d="M44.1418 34.6359C42.9725 34.3987 39.1401 32.3194 38.2053 32.2716C37.2704 32.2239 36.9478 32.5726 36.6865 33.3527C36.4253 34.1265 37.0375 34.542 38.2997 35.44C39.5619 36.3379 42.8812 36.244 43.6287 36.4335C43.8412 36.4876 44.2551 37.0464 44.6565 37.2375C45.4513 37.6164 45.9675 37.1244 46.4333 37.1435C47.129 37.1722 47.6295 37.4763 47.7428 37.1435L47.9757 36.7184C48.163 36.0561 47.2344 35.5196 46.2933 34.9209C45.8164 34.6168 44.5353 34.7156 44.1418 34.6359Z" fill="#FFDC5D"/>
<path d="M34.6851 41.1255C34.6851 41.1255 35.6593 41.7544 36.5029 42.431C37.4661 43.2064 37.4692 45.3478 36.8728 46.9797C36.4053 48.2518 34.2838 50.078 32.1733 50.3391C29.7873 50.6337 28.1741 49.2262 27.2534 47.2568C26.4067 45.4465 26.9103 42.9915 26.9103 42.9915C26.9103 42.9915 28.4007 44.0072 28.1773 44.2047C27.7618 44.5693 28.4543 46.1534 29.0838 46.2601C29.7464 46.3731 29.8581 45.714 29.6866 45.2555C29.5135 44.7953 29.0098 43.4978 29.0098 43.4978C29.0098 43.4978 29.9085 44.953 30.5994 45.1217C31.2903 45.2905 33.0625 43.899 35.1525 45.265C35.1525 45.265 35.5979 44.6027 35.5791 43.5264C35.5617 42.6396 34.6851 41.1255 34.6851 41.1255Z" fill="#FFAC33"/>
<path d="M28.7598 12.1439C28.4954 12.9463 27.614 13.6819 27.3276 13.9637C26.0339 15.2421 23.5267 17.745 22.3007 18.6413L26.4273 22.0644C27.326 21.1935 28.7944 19.3275 30.0614 17.7243C30.8168 16.769 31.5974 16.2802 32.0664 14.833C32.0664 14.833 33.1178 9.35447 34.6948 5.2452C35.1984 3.9317 32.6425 3.00827 32.0664 4.10205C31.4951 5.18629 30.7696 6.73542 30.3934 7.75597C30.1385 8.45492 28.8794 11.7809 28.7598 12.1439Z" fill="#FFDC5D"/>
<path d="M31.8009 1.9526C31.7144 2.21371 31.483 3.15943 31.483 3.51925L31.1053 5.66384C31.0832 5.77051 31.1556 5.874 31.2611 5.88992C31.5711 5.93928 32.5737 5.75618 33.189 6.32298C33.6014 6.7019 33.6486 7.37856 33.8863 7.48204C33.9618 7.51389 34.0468 7.47408 34.0736 7.39607C34.0736 7.39607 34.1491 7.00441 34.2467 6.67006C34.4513 6.40577 34.6921 5.874 35.0635 5.66066C35.2838 5.62244 35.5215 5.42024 36.1022 5.38363C36.4469 5.36134 38.0286 5.24829 38.0286 5.24829C38.43 5.226 38.5559 5.10023 38.7715 5.0859C39.2153 5.05406 40.3768 5.08908 40.7545 5.05883C41.1307 5.03017 41.3431 4.79613 41.4203 4.59393C41.4958 4.39332 41.4753 4.26277 41.4753 4.26277C41.4753 4.26277 41.1086 3.62115 38.9635 2.7407C37.7044 2.22485 32.3706 1.03076 32.3706 1.03076L32.1708 1.18997C31.974 1.34919 31.8922 1.67876 31.8009 1.9526Z" fill="#BE1931"/>
<path d="M34.9581 5.97421C34.9471 6.01879 34.9251 6.06178 34.8936 6.0984C34.7897 6.21303 34.6151 6.22258 34.5017 6.1175L34.1413 5.78634C34.0264 5.68126 34.0217 5.50135 34.1224 5.3899C34.2263 5.27527 34.401 5.26572 34.5143 5.3708L34.8747 5.70196C34.9519 5.77201 34.9802 5.87709 34.9581 5.97421Z" fill="#CCD6DD"/>
<path d="M35.0865 2.17739C34.8772 2.47671 34.2114 3.11834 33.6307 3.2059C33.1082 3.28551 31.783 3.11197 31.5312 3.07853C31.5878 2.66458 31.7578 2.04525 31.8223 1.84941C31.9089 1.59149 32.0285 1.25237 32.2237 1.10589C32.2441 1.09156 34.372 1.9338 35.0865 2.17739Z" fill="#DD2E44"/>
<path d="M32.1938 1.10421C32.1938 1.10421 32.4141 1.15993 32.5416 1.30004C32.6691 1.44174 33.0263 1.60254 33.2986 1.69489C33.5709 1.78723 34.5892 2.15342 35.3304 2.2983C36.0717 2.44319 37.4536 2.52438 37.9005 2.61832C38.3475 2.71225 39.0337 2.8842 39.5232 3.09914C40.0111 3.31408 40.4439 3.52264 40.7051 3.66753C41.0435 3.85221 41.3063 4.0576 41.4779 4.26298C41.4779 4.26298 41.5739 3.66594 40.8184 3.01476C40.2204 2.5005 39.6145 2.14864 38.9944 1.92575C38.9471 1.90823 37.2867 1.35736 36.4557 1.0851C35.8482 0.887681 34.8803 0.56448 34.8803 0.56448C33.7346 0.17441 33.1444 0.00723734 32.9083 0.00564522C32.8658 0.00564522 32.699 -0.0261973 32.4975 0.0613695C32.3653 0.117094 32.0474 1.05485 32.1938 1.10421ZM35.8467 5.53986C35.8231 5.64176 35.7444 5.72455 35.6358 5.75002C35.4863 5.78346 35.3383 5.68793 35.3053 5.53668L35.1998 5.05586C35.1683 4.90142 35.2612 4.75495 35.4107 4.71992C35.5602 4.68649 35.7082 4.78201 35.7412 4.93326L35.8467 5.41409C35.8577 5.45707 35.8561 5.50006 35.8467 5.53986ZM36.8193 5.38384C36.7925 5.50006 36.6934 5.59081 36.5691 5.60036C36.4164 5.60992 36.2826 5.49369 36.2732 5.33926L36.237 4.82022C36.226 4.65942 36.3409 4.53046 36.4951 4.51931C36.6478 4.50976 36.78 4.62599 36.791 4.78042L36.8272 5.29945C36.8272 5.3297 36.8256 5.35677 36.8193 5.38384ZM37.8077 5.28672C37.7778 5.41568 37.6597 5.50961 37.5244 5.50165C37.3717 5.49528 37.2537 5.36314 37.2616 5.20711L37.2852 4.73107C37.2962 4.56548 37.4237 4.45722 37.5763 4.46518C37.729 4.47155 37.847 4.6037 37.8392 4.75972L37.8155 5.23577C37.814 5.25487 37.8124 5.27079 37.8077 5.28672Z" fill="#CCD6DD"/>
<path d="M11.2594 13.8412C12.0904 14.8394 14.596 16.621 14.873 16.9124C16.2233 18.3246 17.7279 19.1843 18.7478 20.5344L15.0319 24.4097C14.0404 23.6486 13.0442 22.4147 11.6041 20.9691C10.7463 20.1078 9.09066 16.8805 8.07867 15.8138C8.07867 15.8138 5.71633 12.8493 3.68607 8.94857C3.03764 7.70194 5.24732 6.69571 6.1696 7.51088C7.1564 8.38336 8.36354 9.80354 9.28267 10.8591C9.76741 11.4164 11.0155 13.5482 11.2594 13.8412Z" fill="#FFDC5D"/>
<path d="M0.505517 0.831762C1.63869 -0.672794 4.171 0.00704288 4.85248 1.93829C5.31047 3.23746 5.3325 5.27538 5.96834 5.917C6.6026 6.56022 6.84497 7.56326 6.85598 7.8976C6.867 8.23195 6.5003 8.4644 6.15877 8.1412C6.15877 8.1412 7.08262 9.14901 6.03444 9.27001C4.98783 9.38942 5.69921 10.0756 5.01301 9.90368C4.32681 9.73173 4.42911 9.21907 4.42911 9.21907C4.42911 9.21907 4.43384 10.4561 3.92863 9.92438C3.42343 9.39101 0.939898 5.72117 0.3922 4.00805C0.0333628 2.88401 -0.320752 1.92874 0.505517 0.831762Z" fill="#CCD6DD"/>
<path d="M0.889362 1.19665C1.95958 -0.354079 4.36127 0.849566 4.73269 2.1758C5.10412 3.50204 5.19698 5.22631 5.83281 5.86794C6.46707 6.50956 7.3201 7.74823 7.32954 8.08258C7.34056 8.41693 6.8448 8.64619 6.50327 8.32299C6.50327 8.32299 7.60811 9.39927 6.55993 9.51867C5.51175 9.63808 5.7856 10.5727 5.0994 10.4007C4.4132 10.2288 4.29359 9.16841 4.29359 9.16841C4.29359 9.16841 4.29831 10.4055 3.79311 9.87372C3.2879 9.34036 1.212 5.96665 0.695779 4.24397C0.179558 2.52129 0.385731 1.92584 0.889362 1.19665Z" fill="#BE1931"/>
<path d="M3.86334 8.13344C3.7941 8.21146 3.77206 8.3245 3.81298 8.42799C3.87121 8.57128 4.03332 8.63974 4.17497 8.58083L6.00063 7.63352C6.14385 7.57142 6.20995 7.41062 6.15172 7.26574C6.09348 7.12244 5.93138 7.05398 5.78973 7.11289L3.96407 8.06021C3.92472 8.07931 3.89167 8.10319 3.86334 8.13344ZM3.24167 6.89318C3.17243 6.97119 3.15039 7.08423 3.19131 7.18772C3.24954 7.33101 3.41165 7.39947 3.5533 7.34057L5.26879 6.57635C5.41201 6.51425 5.47811 6.35345 5.41988 6.20857C5.36165 6.06528 5.19954 5.99681 5.05789 6.05572L3.3424 6.81994C3.30305 6.83905 3.26843 6.86293 3.24167 6.89318ZM2.74119 5.71978C2.64834 5.79461 2.61056 5.92358 2.65463 6.04139C2.71129 6.18628 2.87182 6.25792 3.01347 6.20061L4.54639 5.53987C4.69433 5.48097 4.76044 5.32175 4.70535 5.17528C4.65027 5.03199 4.48973 4.96034 4.34651 5.01766L2.81359 5.67839C2.78526 5.68794 2.76165 5.70227 2.74119 5.71978ZM2.35717 4.61007C2.24228 4.67535 2.18877 4.81705 2.23284 4.94601C2.2832 5.09249 2.44216 5.16891 2.58538 5.11796L4.05535 4.56231C4.20959 4.50499 4.27569 4.35056 4.22533 4.20408C4.17497 4.05761 4.01601 3.98119 3.87279 4.03213L2.40281 4.58938C2.3855 4.59415 2.37134 4.60211 2.35717 4.61007Z" fill="#CCD6DD"/>
<path d="M18.4828 28.5C18.4828 28.5 15.779 26.8075 14.6757 25.9494C13.5756 25.0912 11.0291 21.267 11.0291 21.267C11.0291 21.267 14.1532 18.0015 15.8671 16.8695L19.9339 19.92L23.697 16.3823C23.697 16.3823 27.6159 17.9601 28.6987 19.7879C28.6987 19.7879 26.9218 22.7206 26.3615 23.6663C26.3348 24.3955 26.3741 25.3205 26.7361 25.3683L18.4828 28.5Z" fill="#A0041E"/>
<path d="M18.5534 44.6109L21.4256 38.3395C21.764 37.5944 22.6438 37.268 23.3803 37.6103C24.1153 37.9558 24.4411 38.849 24.0996 39.5925L21.232 45.8671C20.8905 46.6122 20.0107 46.9402 19.2726 46.5947C18.5376 46.2492 18.215 45.3576 18.5534 44.6109Z" fill="#FFDC5D"/>
<path d="M17.7288 52.5122C17.7288 52.5122 18.1963 46.9159 18.3363 45.8444C18.4764 44.7729 19.2791 43.9387 20.0896 44.0199C20.8938 44.0979 21.27 44.7061 21.3754 46.0817C21.4809 47.4557 19.8661 51.186 20.0109 52.6428C20.0581 53.1157 21.4809 53.5201 21.0858 53.8258C20.9111 53.9611 19.7433 54.0869 19.4963 54.0614L18.6086 54.1092C18.212 54.0694 17.211 54.1585 16.9718 53.8719C16.7231 53.5726 17.6863 52.9278 17.7288 52.5122Z" fill="#FFDC5D"/>
<path d="M24.5832 40.7846C24.5832 40.7846 25.4772 40.0746 26.124 39.5492C26.124 39.5492 25.4803 38.4012 27.0919 37.1944C28.7051 35.9876 29.7486 36.5639 29.7486 36.5639C29.7486 36.5639 30.1121 36.7072 31.3822 36.3203C31.985 36.1372 33.1874 35.8316 33.1874 35.8316C33.1874 35.8316 33.1229 33.2571 32.7672 31.6904L29.6966 31.5678C29.6966 31.5678 29.3771 30.0649 28.8641 29.6255C28.3478 29.1892 28.0409 28.8135 27.6506 28.3613C26.5631 27.1019 26.7063 24.5418 26.5993 23.9639C26.5993 23.9639 22.8095 25.4859 20.0694 26.2661C17.9479 26.8711 14.8899 26.3043 14.8899 26.3043C15.6469 27.3471 17.3262 28.511 18.4657 29.7799C19.5784 31.017 22.0619 37.6068 21.3741 38.3821C20.6848 39.1575 19.7027 40.826 19.7027 40.826C19.7027 40.826 20.6706 41.5409 21.3269 42.1029C22.246 42.8878 23.0141 43.0789 23.0141 43.0789C23.0141 43.0789 24.0292 41.3244 24.5832 40.7846Z" fill="#DD2E44"/>
</svg>
